<svg width="512" height="512" viewBox="0 0 512 512" fill="none" xmlns="http://www.w3.org/2000/svg" role="img" aria-label="Tea Alchemy logo">
  <defs>
    <linearGradient id="brandGradient" x1="64" y1="64" x2="448" y2="448" gradientUnits="userSpaceOnUse">
      <stop offset="0" stop-color="#FF6B4A"/>
      <stop offset="0.52" stop-color="#F7C443"/>
      <stop offset="1" stop-color="#2BB8A4"/>
    </linearGradient>
    <filter id="softShadow" x="-20%" y="-20%" width="140%" height="140%" color-interpolation-filters="sRGB">
      <feDropShadow dx="0" dy="18" stdDeviation="18" flood-color="#143943" flood-opacity="0.25"/>
    </filter>
  </defs>
  <rect x="48" y="48" width="416" height="416" rx="128" fill="url(#brandGradient)" filter="url(#softShadow)"/>
  <circle cx="256" cy="256" r="128" fill="#FFF6EA" fill-opacity="0.95"/>
  <path d="M256 190C221 200 192 236 192 274C192 322 228 360 278 360C330 360 356 316 356 274C356 235 321 202 290 196C286 195 282 195 278 196C270 197 263 199 256 202V190Z" fill="#2BB8A4"/>
  <path d="M278 196C312 206 336 234 336 270C336 307 312 330 278 336" stroke="#1B2A2F" stroke-width="10" stroke-linecap="round" stroke-linejoin="round"/>
  <path d="M226 240C216 262 216 284 226 306" stroke="#1B2A2F" stroke-width="10" stroke-linecap="round" stroke-linejoin="round"/>
  <path d="M320 170L350 140" stroke="#F7C443" stroke-width="14" stroke-linecap="round"/>
  <path d="M338 182L370 182" stroke="#FF6B4A" stroke-width="10" stroke-linecap="round"/>
  <circle cx="170" cy="192" r="12" fill="#FF6B4A"/>
</svg>
